<?xml version="1.0" encoding="utf-8"?>
<!-- Generator: Adobe Illustrator 19.0.0, SVG Export Plug-In . SVG Version: 6.00 Build 0)  -->
<svg version="1.1" id="Layer_1" xmlns="http://www.w3.org/2000/svg" xmlns:xlink="http://www.w3.org/1999/xlink" x="0px" y="0px"
	 viewBox="0 0 1200 1200" style="enable-background:new 0 0 1200 1200;" xml:space="preserve">
<style type="text/css">
	.st0{opacity:0.12;}
	.st1{fill:url(#XMLID_25_);stroke:#000000;stroke-width:5;stroke-miterlimit:10;}
	.st2{fill:url(#XMLID_26_);stroke:#000000;stroke-width:5;stroke-miterlimit:10;}
	.st3{fill:url(#XMLID_27_);stroke:#000000;stroke-width:5;stroke-miterlimit:10;}
	.st4{fill:url(#XMLID_28_);stroke:#000000;stroke-width:5;stroke-miterlimit:10;}
	.st5{fill:url(#XMLID_29_);stroke:#000000;stroke-width:5;stroke-miterlimit:10;}
	.st6{fill:none;}
	.st7{font-family:'LatinWide';}
	.st8{font-size:176.6665px;}
	.st9{font-family:'GillSansMT';}
	.st10{font-size:200.0478px;}
</style>
<g id="XMLID_1_" class="st0">
	<linearGradient id="XMLID_25_" gradientUnits="userSpaceOnUse" x1="115.0137" y1="573.4878" x2="458.2706" y2="573.4878">
		<stop  offset="0" style="stop-color:#FFFFFF"/>
		<stop  offset="1" style="stop-color:#000000"/>
	</linearGradient>
	<ellipse id="XMLID_2_" class="st1" cx="286.6" cy="573.5" rx="171.6" ry="166.5"/>
	<linearGradient id="XMLID_26_" gradientUnits="userSpaceOnUse" x1="58.9158" y1="975.8047" x2="402.1727" y2="975.8047">
		<stop  offset="0" style="stop-color:#FFFFFF"/>
		<stop  offset="1" style="stop-color:#000000"/>
	</linearGradient>
	<ellipse id="XMLID_6_" class="st2" cx="230.5" cy="975.8" rx="171.6" ry="166.5"/>
	<linearGradient id="XMLID_27_" gradientUnits="userSpaceOnUse" x1="27.9631" y1="190.7771" x2="371.22" y2="190.7771">
		<stop  offset="0" style="stop-color:#FFFFFF"/>
		<stop  offset="1" style="stop-color:#000000"/>
	</linearGradient>
	<ellipse id="XMLID_4_" class="st3" cx="199.6" cy="190.8" rx="171.6" ry="166.5"/>
	<linearGradient id="XMLID_28_" gradientUnits="userSpaceOnUse" x1="458.2707" y1="843.9543" x2="801.5276" y2="843.9543">
		<stop  offset="0" style="stop-color:#FFFFFF"/>
		<stop  offset="1" style="stop-color:#000000"/>
	</linearGradient>
	<ellipse id="XMLID_3_" class="st4" cx="629.9" cy="844" rx="171.6" ry="166.5"/>
	<linearGradient id="XMLID_29_" gradientUnits="userSpaceOnUse" x1="840.7526" y1="975.8047" x2="1184.0095" y2="975.8047">
		<stop  offset="0" style="stop-color:#FFFFFF"/>
		<stop  offset="1" style="stop-color:#000000"/>
	</linearGradient>
	<ellipse id="XMLID_5_" class="st5" cx="1012.4" cy="975.8" rx="171.6" ry="166.5"/>
	<g id="XMLID_189_">
		<rect id="XMLID_37_" x="155.4" y="903" class="st6" width="167.9" height="152.2"/>
		<text id="XMLID_194_" transform="matrix(0.5502 0 0 1 155.3939 1026.7759)" class="st7 st8">B</text>
		<rect id="XMLID_193_" x="214.2" y="896.4" width="9.7" height="15.4"/>
		<rect id="XMLID_192_" x="214.2" y="1021.6" width="9.7" height="20.9"/>
		<rect id="XMLID_191_" x="236.5" y="896.4" width="9.7" height="15.4"/>
		<rect id="XMLID_190_" x="236.5" y="1015.2" width="9.7" height="27.5"/>
	</g>
	
		<rect id="XMLID_7_" x="271.7" y="465.6" transform="matrix(0.9742 0.2256 -0.2256 0.9742 135.3785 -49.435)" width="24.6" height="204.2"/>
	<polygon id="XMLID_8_" points="247.1,669.9 255.6,645.2 364.4,645.2 364.4,669.9 	"/>
	<polygon id="XMLID_9_" points="239.3,585 246.6,572.8 325.2,562.8 319.6,575 	"/>
	<g id="XMLID_10_">
		<circle id="XMLID_11_" cx="677.8" cy="791.6" r="34.5"/>
		<circle id="XMLID_12_" cx="582" cy="838.1" r="34.5"/>
		<circle id="XMLID_13_" cx="662" cy="896.3" r="34.5"/>
		<rect id="XMLID_14_" x="609.5" y="830.2" width="38.2" height="15.9"/>
		
			<rect id="XMLID_15_" x="643.1" y="801.4" transform="matrix(0.7071 0.7071 -0.7071 0.7071 772.2407 -219.4802)" width="15.9" height="42.1"/>
		
			<rect id="XMLID_16_" x="640.3" y="831.1" transform="matrix(-0.888 0.4599 -0.4599 -0.888 1617.5704 1318.0818)" width="15.9" height="50"/>
	</g>
	<rect id="XMLID_18_" x="77.7" y="113.9" class="st6" width="590" height="507.9"/>
	<text id="XMLID_17_" transform="matrix(1.5488 0 0 1 77.708 250.3184)" class="st9 st10">M</text>
	<polygon id="XMLID_19_" points="358.6,250.1 270.7,250.1 270.7,227.2 367.1,227.2 	"/>
	<polygon id="XMLID_21_" points="128.4,250.1 40.4,250.1 32.1,227.2 128.4,227.2 	"/>
	<g id="XMLID_20_">
		<polygon id="XMLID_22_" points="1061.9,975.2 1012.4,998.5 962.9,974.8 1012.4,876.5 		"/>
		<polygon id="XMLID_23_" points="962.9,976.4 1012.4,1002.7 1061.9,976.8 1012.4,1075.2 		"/>
	</g>
</g>
</svg>
