<?xml version="1.0" encoding="utf-8"?>
<!-- Generator: Adobe Illustrator 19.0.0, SVG Export Plug-In . SVG Version: 6.00 Build 0)  -->
<svg version="1.1" id="Layer_1" xmlns="http://www.w3.org/2000/svg" xmlns:xlink="http://www.w3.org/1999/xlink" x="0px" y="0px"
	 viewBox="0 0 1200 1200" style="enable-background:new 0 0 1200 1200;" xml:space="preserve">
<style type="text/css">
	.st0{opacity:0.13;}
	.st1{fill:#58595B;}
	.st2{fill:#FFFFFF;stroke:#58595B;stroke-width:3;stroke-miterlimit:10;}
	.st3{fill:none;stroke:#58595B;stroke-width:3;stroke-miterlimit:10;}
	.st4{fill:#FFFFFF;stroke:#000000;stroke-width:5;stroke-miterlimit:10;}
	.st5{fill:none;}
	.st6{font-family:'GillSans-UltraBoldCondensed';}
	.st7{font-size:113.281px;}
</style>
<g id="XMLID_20_" class="st0">
	<path id="XMLID_44_" class="st1" d="M1132,1022.4H359.9c-10.7,0-19.4-8.7-19.4-19.4v0c0-10.7,8.7-19.4,19.4-19.4H1132
		c10.7,0,19.4,8.7,19.4,19.4v0C1151.4,1013.7,1142.7,1022.4,1132,1022.4z"/>
	<polygon id="XMLID_43_" class="st1" points="581.8,772.8 426.5,914.4 397.5,907.6 552.7,766 	"/>
	<polygon id="XMLID_42_" class="st1" points="716.7,889.6 565.4,792.3 563.6,762.7 714.9,860 	"/>
	<polygon id="XMLID_41_" points="801,801.4 640.2,715 666.9,700.6 827.8,787 	"/>
	<polygon id="XMLID_40_" class="st1" points="1057.1,595.6 831.2,712.2 804.9,697.5 1030.7,580.8 	"/>
	<polygon id="XMLID_39_" class="st1" points="1042.2,669.5 1042.1,594.6 871.9,591.9 1110.7,557.1 	"/>
	<circle id="XMLID_37_" cx="763.3" cy="576.4" r="57.5"/>
	<path id="XMLID_36_" d="M791.6,919.1h-86.4c-41.5,0-75.2-34.5-75.2-77.1V701.7c0-21,16.6-38,37-38l48.3-11.5L791.6,919.1z"/>
	<path id="XMLID_35_" d="M844.8,919.1h-81.2L815,652.3l33.3,27.6c12.3,0,22.2,16.5,22.2,36.8v159.9
		C870.5,900.1,859,919.1,844.8,919.1z"/>
	<path id="XMLID_34_" d="M797.8,920.4h-69L756.4,722c0-21.9,8.2-39.7,18.4-39.7l0,0c4,0,7.3,6.3,7.9,14.7L797.8,920.4z"/>
	<path id="XMLID_33_" d="M780.6,686.8h-23.9c-9.5,0-17.3-7.7-17.3-17.3v0c0-9.5,7.7-17.3,17.3-17.3h23.9c9.5,0,17.3,7.7,17.3,17.3v0
		C797.8,679.1,790.1,686.8,780.6,686.8z"/>
	<path id="XMLID_32_" d="M811.5,1161.5h-80.7c-34,0-61.5-27.5-61.5-61.5V915.4H858v199.7C858,1140.7,837.2,1161.5,811.5,1161.5z"/>
	<path id="XMLID_31_" d="M930.3,914.3L930.3,914.3c-13.1,4.4-27.3-2.6-31.7-15.6l-61.5-181.2c-4.4-13.1,2.6-27.3,15.6-31.7h0
		c13.1-4.4,27.3,2.6,31.7,15.6L946,882.6C950.4,895.6,943.4,909.8,930.3,914.3z"/>
	<rect id="XMLID_30_" x="806.4" y="983.6" class="st2" width="250.8" height="154.1"/>
	<rect id="XMLID_29_" x="872.2" y="935.8" class="st3" width="119.1" height="50"/>
	<rect id="XMLID_28_" x="925.2" y="933.6" class="st4" width="6.5" height="2.2"/>
	<path id="XMLID_27_" d="M926.3,952h-10.4c-6.9,0-12.5-5.6-12.5-12.5v-9.1c0-17.6,14.3-31.9,31.9-31.9h11.8v32.7
		C947.1,942.6,937.8,952,926.3,952z"/>
	<rect id="XMLID_26_" x="901.3" y="1020.2" class="st5" width="71.6" height="97.1"/>
	<text id="XMLID_25_" transform="matrix(1 0 0 1 901.3496 1104.6357)" class="st6 st7">S</text>
	
		<rect id="XMLID_24_" x="933.5" y="1005" transform="matrix(-0.9711 -0.2385 0.2385 -0.9711 1603.9373 2235.2966)" width="7.5" height="31.2"/>
	
		<rect id="XMLID_23_" x="921.6" y="1085.7" transform="matrix(-0.9711 -0.2385 0.2385 -0.9711 1561.2511 2391.5103)" width="7.5" height="31.2"/>
	<path id="XMLID_22_" class="st1" d="M340.4,1003V576.5c0-10.7,8.7-19.4,19.4-19.4h0c10.7,0,19.4,8.7,19.4,19.4V1003
		c0,10.7-8.7,19.4-19.4,19.4h0C349.1,1022.4,340.4,1013.7,340.4,1003z"/>
</g>
</svg>
