<?xml version="1.0" encoding="utf-8"?>
<!-- Generator: Adobe Illustrator 19.0.0, SVG Export Plug-In . SVG Version: 6.00 Build 0)  -->
<svg version="1.1" id="Layer_1" xmlns="http://www.w3.org/2000/svg" xmlns:xlink="http://www.w3.org/1999/xlink" x="0px" y="0px"
	 viewBox="0 0 1200 1200" style="enable-background:new 0 0 1200 1200;" xml:space="preserve">
<style type="text/css">
	.st0{opacity:0.11;}
	.st1{fill:#FFFFFF;stroke:#000000;stroke-width:2;stroke-miterlimit:10;}
	.st2{fill:#FFFFFF;}
	.st3{fill:none;stroke:#000000;stroke-miterlimit:10;}
	.st4{fill:none;}
	.st5{font-family:'Vijaya';}
	.st6{font-size:465.0813px;}
</style>
<g id="XMLID_4_" class="st0">
	<g id="XMLID_5_">
		<path id="XMLID_45_" class="st1" d="M848.9,1082.1H373.7c-36.4,0-65.9-29.5-65.9-65.9V665.9c0-36.4,29.5-65.9,65.9-65.9h475.2
			c36.4,0,65.9,29.5,65.9,65.9v350.3C914.8,1052.6,885.3,1082.1,848.9,1082.1z"/>
		<g id="XMLID_6_">
			<circle id="XMLID_52_" cx="289.8" cy="1101.3" r="83.9"/>
			<circle id="XMLID_51_" cx="510.7" cy="1064.1" r="83.9"/>
			
				<ellipse id="XMLID_50_" transform="matrix(0.9846 -0.1748 0.1748 0.9846 -176.8774 84.8486)" cx="393.2" cy="1046.5" rx="120.1" ry="56.6"/>
			<g id="XMLID_47_">
				<path id="XMLID_49_" class="st2" d="M292.1,1139.5L292.1,1139.5c-4.9,0.9-9.6-2.4-10.5-7.3l-6.8-38.2c-0.9-4.9,2.4-9.6,7.3-10.5
					l0,0c4.9-0.9,9.6,2.4,10.5,7.3l6.8,38.2C300.3,1133.9,297,1138.6,292.1,1139.5z"/>
				<path id="XMLID_48_" class="st2" d="M259.1,1116.4L259.1,1116.4c-0.9-4.9,2.4-9.6,7.3-10.5l38.2-6.8c4.9-0.9,9.6,2.4,10.5,7.3h0
					c0.9,4.9-2.4,9.6-7.3,10.5l-38.2,6.8C264.7,1124.6,260,1121.3,259.1,1116.4z"/>
			</g>
			<circle id="XMLID_46_" class="st2" cx="512.7" cy="1027.9" r="13.3"/>
			<circle id="XMLID_12_" class="st2" cx="474.8" cy="1074.3" r="13.3"/>
			<circle id="XMLID_11_" class="st2" cx="556.5" cy="1061.9" r="12.9"/>
			<circle id="XMLID_10_" class="st2" cx="525.2" cy="1105.5" r="12.9"/>
			
				<ellipse id="XMLID_9_" transform="matrix(0.9846 -0.1748 0.1748 0.9846 -178.9772 80.4256)" class="st2" cx="367.1" cy="1056.2" rx="12.5" ry="5"/>
			
				<ellipse id="XMLID_8_" transform="matrix(0.9846 -0.1748 0.1748 0.9846 -176.4123 89.9312)" class="st2" cx="422.3" cy="1046.4" rx="12.5" ry="5"/>
			<path id="XMLID_7_" class="st3" d="M389.6,995.8c-105.8,30.8-27.8-125.3-64.9-177.7s-65.5-15.1-69.4-12.3"/>
		</g>
		<g id="XMLID_13_">
			<circle id="XMLID_44_" cx="697.4" cy="1082.8" r="86.1"/>
			<circle id="XMLID_43_" cx="927.1" cy="1092.3" r="86.1"/>
			
				<ellipse id="XMLID_42_" transform="matrix(0.9995 3.222977e-002 -3.222977e-002 0.9995 34.2549 -25.6524)" cx="812.8" cy="1049.7" rx="123.2" ry="58.1"/>
			<g id="XMLID_39_">
				<path id="XMLID_41_" class="st2" d="M691.6,1121.7L691.6,1121.7c-5.1-0.2-9.1-4.4-9-9.6l1.3-39.8c0.2-5.1,4.4-9.1,9.6-9l0,0
					c5.1,0.2,9.1,4.4,9,9.6l-1.3,39.8C701,1117.8,696.7,1121.8,691.6,1121.7z"/>
				<path id="XMLID_40_" class="st2" d="M663.4,1091.5L663.4,1091.5c0.2-5.1,4.4-9.1,9.6-9l39.8,1.3c5.1,0.2,9.1,4.4,9,9.6h0
					c-0.2,5.1-4.4,9.1-9.6,9l-39.8-1.3C667.2,1100.9,663.2,1096.7,663.4,1091.5z"/>
			</g>
			<circle id="XMLID_38_" class="st2" cx="936.7" cy="1056.4" r="13.6"/>
			<circle id="XMLID_37_" class="st2" cx="888.9" cy="1094.9" r="13.6"/>
			<circle id="XMLID_35_" class="st2" cx="973.5" cy="1099.8" r="13.2"/>
			<circle id="XMLID_23_" class="st2" cx="932.8" cy="1136.9" r="13.2"/>
			
				<ellipse id="XMLID_16_" transform="matrix(0.9995 3.222977e-002 -3.222977e-002 0.9995 34.3758 -24.7374)" class="st2" cx="784.5" cy="1053.9" rx="12.8" ry="5.1"/>
			
				<ellipse id="XMLID_14_" transform="matrix(0.9995 3.222977e-002 -3.222977e-002 0.9995 34.4655 -26.5912)" class="st2" cx="842.1" cy="1055.8" rx="12.8" ry="5.1"/>
			<path id="XMLID_53_" class="st3" d="M899.6,764.7c85.8,73.7-92.1,94.1-116.5,155.3c-24.3,61.3,23.7,64.7,28.3,66.6"/>
		</g>
	</g>
	<rect id="XMLID_29_" x="522.7" y="674.3" class="st4" width="347.2" height="510.9"/>
	<text id="XMLID_54_" transform="matrix(1 0 0 1 522.739 934.3143)" class="st5 st6">e</text>
</g>
</svg>
