<?xml version="1.0" encoding="utf-8"?>
<!-- Generator: Adobe Illustrator 19.0.0, SVG Export Plug-In . SVG Version: 6.00 Build 0)  -->
<svg version="1.1" id="Layer_1" xmlns="http://www.w3.org/2000/svg" xmlns:xlink="http://www.w3.org/1999/xlink" x="0px" y="0px"
	 viewBox="0 0 1200 1200" style="enable-background:new 0 0 1200 1200;" xml:space="preserve">
<style type="text/css">
	.st0{opacity:0.15;}
	.st1{fill:#FFFFFF;stroke:#000000;stroke-miterlimit:10;}
	.st2{fill:none;stroke:#000000;stroke-width:2;stroke-miterlimit:10;}
	.st3{fill:none;stroke:#FFFFFF;stroke-width:0.75;stroke-miterlimit:10;}
</style>
<g id="XMLID_2_" class="st0">
	<rect id="XMLID_3_" x="286" y="444.6" width="657.4" height="354.6"/>
	<g id="XMLID_4_">
		<rect id="XMLID_5_" x="292.2" y="365.2" class="st1" width="645" height="79.4"/>
		<polygon id="XMLID_6_" points="292.2,444.6 377.7,457.3 454.1,361.3 348,365.2 		"/>
		<polygon id="XMLID_7_" points="454.1,444.6 539.7,457.3 616.1,361.3 509.9,365.2 		"/>
		<polygon id="XMLID_8_" points="616.1,444.6 701.6,457.3 778,361.3 671.9,365.2 		"/>
		<polygon id="XMLID_9_" points="778,444.6 863.6,457.3 940,361.3 833.8,365.2 		"/>
	</g>
	<polygon id="XMLID_16_" class="st1" points="888.7,145.1 297.4,364.9 260.2,292.1 851.6,72.3 	"/>
	<polygon id="XMLID_15_" points="297.4,364.9 385.1,332.3 406.9,233.3 311.4,273.1 	"/>
	<polygon id="XMLID_14_" points="445.8,309.7 533.5,277.1 555.3,178.2 459.9,217.9 	"/>
	<polygon id="XMLID_13_" points="594.3,254.6 681,226.6 703.8,123 608.4,162.7 	"/>
	<polygon id="XMLID_12_" points="742.8,199.4 830.5,166.8 852.3,67.8 756.8,107.5 	"/>
	<g id="XMLID_24_">
		<path id="XMLID_17_" d="M804.1,993.8L662.1,851.7c-8.8-8.8-8.8-23.1,0-32v0c8.8-8.8,23.1-8.8,32,0l142.1,142.1
			c8.8,8.8,8.8,23.1,0,32l0,0C827.3,1002.6,812.9,1002.6,804.1,993.8z"/>
		
			<ellipse id="XMLID_18_" transform="matrix(0.7071 0.7071 -0.7071 0.7071 986.5768 -316.2606)" cx="875" cy="1032.8" rx="93.3" ry="71"/>
	</g>
	<path id="XMLID_10_" class="st2" d="M662.6,821.9"/>
	<path id="XMLID_11_" class="st2" d="M454.1,799.3"/>
	<path id="XMLID_25_" class="st3" d="M455.4,791.4c0-33.7,46.4-60.9,103.6-60.9c57.2,0,103.1,55.7,103.1,89.3"/>
	<path id="XMLID_23_" class="st2" d="M455.4,791.4c0,33.7-46.4,91.4-103.6,91.4s-103.6-27.3-103.6-60.9"/>
	<path id="XMLID_22_" class="st2" d="M40.9,821.9c0-33.7,46.4-60.9,103.6-60.9s103.6,27.3,103.6,60.9"/>
</g>
</svg>
