<?xml version="1.0" encoding="utf-8"?>
<!-- Generator: Adobe Illustrator 19.0.0, SVG Export Plug-In . SVG Version: 6.00 Build 0)  -->
<svg version="1.1" id="Layer_1" xmlns="http://www.w3.org/2000/svg" xmlns:xlink="http://www.w3.org/1999/xlink" x="0px" y="0px"
	 viewBox="0 0 1200 1200" style="enable-background:new 0 0 1200 1200;" xml:space="preserve">
<style type="text/css">
	.st0{opacity:0.11;}
	.st1{stroke:#FFFFFF;stroke-miterlimit:10;}
	.st2{fill:#FFFFFF;stroke:#FFFFFF;stroke-miterlimit:10;}
	.st3{fill:#FFFFFF;stroke:#000000;stroke-miterlimit:10;}
	.st4{fill:#FFFFFF;stroke:#000000;stroke-width:3;stroke-miterlimit:10;}
</style>
<g id="XMLID_77_" class="st0">
	<g id="XMLID_81_">
		<path id="XMLID_97_" class="st1" d="M934.8,561.1C795,819.2,682.5,885.4,621.1,937.9c-66.5,56.8-24.3-244.7-24.3-400
			s75.3-264.8,164.6-281.3C907.8,229.5,1009.6,423.1,934.8,561.1z"/>
		<path id="XMLID_96_" d="M643.8,556.9c0,155.4,46.7,513-100.1,345.3C471.7,819.8,409,769,311,572.4
			c-69.3-139-12.3-340.7,175.7-296.8C571.2,295.3,643.8,401.6,643.8,556.9z"/>
		<g id="XMLID_82_">
			<rect id="XMLID_95_" x="307.1" y="559.1" class="st2" width="124.3" height="4.5"/>
			
				<rect id="XMLID_94_" x="457.9" y="551.5" transform="matrix(0.7071 0.7071 -0.7071 0.7071 538.4594 -192.4768)" class="st2" width="87.3" height="4.5"/>
			
				<rect id="XMLID_93_" x="416.4" y="541.8" transform="matrix(0.7071 -0.7071 0.7071 0.7071 -253.9778 474.9923)" class="st2" width="59.9" height="4.5"/>
			
				<rect id="XMLID_92_" x="541.9" y="599.5" transform="matrix(0.3285 -0.9445 0.9445 0.3285 -148.9254 994.0785)" class="st2" width="165.5" height="4.5"/>
			
				<rect id="XMLID_91_" x="585.5" y="598.5" transform="matrix(-0.1295 -0.9916 0.9916 -0.1295 151.2947 1334.3176)" class="st2" width="151.6" height="4.5"/>
			
				<rect id="XMLID_90_" x="492.8" y="521.3" transform="matrix(0.3035 -0.9528 0.9528 0.3035 -112.3083 893.4358)" class="st2" width="124.3" height="4.5"/>
			
				<rect id="XMLID_89_" x="480.2" y="565.7" transform="matrix(-6.978279e-002 -0.9976 0.9976 -6.978279e-002 61.2681 1192.9004)" class="st2" width="213.2" height="4.5"/>
			<g id="XMLID_83_">
				<rect id="XMLID_88_" x="810.5" y="577.5" class="st2" width="124.3" height="4.5"/>
				
					<rect id="XMLID_87_" x="662.7" y="515" transform="matrix(0.3551 0.9348 -0.9348 0.3551 944.8307 -335.211)" class="st2" width="105.5" height="4.5"/>
				
					<rect id="XMLID_86_" x="729" y="547.8" transform="matrix(0.7071 -0.7071 0.7071 0.7071 -166.6607 697.7726)" class="st2" width="59.9" height="4.5"/>
				
					<rect id="XMLID_85_" x="761.3" y="553.2" transform="matrix(0.5099 0.8603 -0.8603 0.5099 865.6251 -408.4689)" class="st2" width="59.9" height="4.5"/>
				
					<rect id="XMLID_84_" x="575.3" y="568.8" transform="matrix(0.1643 -0.9864 0.9864 0.1643 6.6646 1149.8309)" class="st2" width="213.2" height="4.5"/>
			</g>
		</g>
	</g>
	<g id="XMLID_79_">
		<path id="XMLID_117_" class="st3" d="M324.6,570.8c0,46.2,1.7,98.8,10.6,98.8s18-45.9,21.6-98.8c3.2-46.1,26.5-89.5-16.1-83.6
			C299.4,492.9,324.6,524.6,324.6,570.8z"/>
		<ellipse id="XMLID_116_" class="st3" cx="341.6" cy="452.6" rx="19.3" ry="38.5"/>
		<path id="XMLID_115_" class="st3" d="M439.6,351.2c-4.9-2.1-24.5,31.8-49.2,78.6c-21,39.9-44.1,79.1-22.6,79.1
			c5.3,0,30.4-27.7,40.4-71.7C420.6,383,444.5,353.3,439.6,351.2z"/>
		<path id="XMLID_114_" class="st3" d="M237.8,343.1c-2.8,1.7,15.1,61.1,38.8,101.3s32.5,80.4,45,67.6
			c14.6-14.9-14.1-35.6-37.8-75.8S240.6,341.5,237.8,343.1z"/>
		<ellipse id="XMLID_113_" class="st3" cx="485.1" cy="351.2" rx="34.4" ry="61.5"/>
		<ellipse id="XMLID_112_" class="st3" cx="206" cy="351.2" rx="34.4" ry="61.5"/>
		<ellipse id="XMLID_118_" class="st3" cx="325.9" cy="357.2" rx="135.9" ry="6"/>
	</g>
	<g id="XMLID_120_">
		<path id="XMLID_147_" class="st4" d="M900.2,292.1c2.5,28.2-0.9,26.5,3.2,26.5c4.1,0-0.4-3.5,7.4-25.6
			c4.7-13.3,36.9-31.2-7.4-25.6C899.3,268,899,279.1,900.2,292.1z"/>
		<path id="XMLID_146_" class="st4" d="M925.5,369.2c0,46.4-11.6,94.4-69,83.9c-33.2-6.1-42.1-43.1-60.7-83.9
			c-15.4-33.8,8.1-89.3,60.7-83.9C894.5,289.1,925.5,322.8,925.5,369.2z"/>
		<path id="XMLID_145_" class="st4" d="M906.2,310.6c93.6-59.2,105.5,22.5,101.2,58.6c-10,84-66,108.3-93.1,60.2"/>
	</g>
</g>
</svg>
