<?xml version="1.0" encoding="utf-8"?>
<!-- Generator: Adobe Illustrator 19.0.0, SVG Export Plug-In . SVG Version: 6.00 Build 0)  -->
<svg version="1.1" id="Layer_1" xmlns="http://www.w3.org/2000/svg" xmlns:xlink="http://www.w3.org/1999/xlink" x="0px" y="0px"
	 viewBox="0 0 1200 1200" style="enable-background:new 0 0 1200 1200;" xml:space="preserve">
<style type="text/css">
	.st0{opacity:0.1;}
	.st1{fill:#FFFFFF;}
</style>
<g id="XMLID_73_" class="st0">
	<path id="XMLID_74_" d="M1071.9,1169.6H715.3V590.2h363.5c45.7,0,82.8,37.1,82.8,82.8v406.9
		C1161.6,1129.4,1121.4,1169.6,1071.9,1169.6z"/>
	<rect id="XMLID_75_" x="925.2" y="650" class="st1" width="178.5" height="105.8"/>
	<rect id="XMLID_80_" x="925.2" y="790.2" class="st1" width="178.5" height="52.9"/>
	<rect id="XMLID_82_" x="925.2" y="1078.8" class="st1" width="178.5" height="52.9"/>
	<rect id="XMLID_81_" x="925.2" y="879.9" class="st1" width="178.5" height="156.3"/>
	<path id="XMLID_83_" d="M973.2,1131.6l-300.4,37.9c-11.1,0-71.1-9-71.1-20.1V637.9c0-26.3,21.4-47.7,47.7-47.7l323.7-82.8
		c45.7,0,30-27.5,35.6,26.2l11.2,553C1014.4,1128.3,1022.7,1131.6,973.2,1131.6z"/>
	<path id="XMLID_84_" class="st1" d="M663.5,1089.1L663.5,1089.1c5.4,0,9.7-4.4,9.7-9.7v-399c0-5.4-4.4-9.7-9.7-9.7l0,0
		c-5.4,0-9.7,4.4-9.7,9.7v399C653.7,1084.7,658.1,1089.1,663.5,1089.1z"/>
	<g id="XMLID_96_">
		<g id="XMLID_5_">
			<path id="XMLID_22_" class="st1" d="M720.4,718.1c0-21.7,0-43.4,0-65.1c3.7,0,5.5-0.1,9.2-0.3c6.7,10.2,13.7,20.2,20.9,30.1
				c4.8,6.7,8.6,12.6,11.7,18.4c0.1-0.1,0.1-0.1,0.2-0.1c-0.8-8.5-1-16.4-1-26.5c0-10.9,0-16.3,0-27.2c3.2-0.8,4.8-1.3,7.9-2.2
				c0,21.7,0,43.4,0,65.1c-3.4,1-5.1,1.5-8.5,2.3c-7.1-9.5-14-19.1-20.7-28.9c-4.5-6.6-8.9-13.7-12.2-20.5c-0.1,0-0.2,0.1-0.3,0.1
				c0.5,8.2,0.7,16,0.7,26.8c0,11.1,0,16.7,0,27.8C725.2,718.1,723.6,718.1,720.4,718.1z"/>
			<path id="XMLID_19_" class="st1" d="M817.6,661.7c-10.1,4.3-15.2,6.5-25.3,10.3c0,9.4,0,14.1,0,23.5c9.5-3.6,18.9-7.5,28.2-11.5
				c0,2.8,0,4.2,0,7c-12,5.2-24.2,10.2-36.6,14.6c0-21.7,0-43.4,0-65.1c11.9-4.2,23.6-9,35.1-13.9c0,2.8,0,4.2,0,7
				c-8.8,3.8-17.7,7.5-26.7,10.9c0,8.2,0,12.3,0,20.6c10.1-3.8,15.2-5.9,25.3-10.3C817.6,657.5,817.6,658.9,817.6,661.7z"/>
			<path id="XMLID_16_" class="st1" d="M842.9,681.2c-5.5-19.3-11-38.6-16.5-57.8c3.6-1.5,5.3-2.3,8.9-3.9
				c2.6,9.8,5.2,19.7,7.7,29.5c1.9,7.3,3.7,14.6,4.8,20.4c0.1,0,0.1-0.1,0.2-0.1c1.1-6.9,3.1-15.5,5.3-24.9
				c2.9-12.2,5.8-24.3,8.7-36.5c3.5-1.5,5.3-2.2,8.8-3.6c2.6,10,5.3,20,7.9,30c1.8,7,3.6,14.1,4.5,20.6c0.1,0,0.1,0,0.2-0.1
				c1.4-7.6,3.2-15.5,5.2-24.3c2.9-11.9,5.7-23.8,8.6-35.6c3.4-1.1,5.2-1.6,8.6-2.5c-6.2,23.6-12.3,47.2-18.4,70.8
				c-3.5,1.2-5.3,1.9-8.8,3.2c-2.7-10.2-5.5-20.5-8.2-30.7c-2-7.5-3.4-13.3-4.2-19.5c-0.1,0-0.1,0-0.2,0.1c-1.2,6.9-2.6,13.9-5,23.3
				c-3.1,12.6-6.2,25.2-9.3,37.8C848.2,678.9,846.5,679.7,842.9,681.2z"/>
			<path id="XMLID_14_" class="st1" d="M912.8,645.5c3.8,1.4,9.3,2.2,15.1,1.3c8.6-1.3,13.6-6,13.6-12.6c0-6.1-3.6-9.7-12.3-11.7
				c-10.4-2.3-17.3-6-17.2-15.1c0.2-11.4,10-20.2,21-21.5c6.7-0.8,11.5,0.6,14.4,2.2c-0.9,2.8-1.4,4.1-2.3,6.9
				c-2.1-1.1-6.5-2.8-12.4-2.1c-8.9,1.1-12.3,7.3-12.3,11.7c0,6.1,4,8.1,12.9,10.5c11,3,16.6,8.6,16.6,18.1
				c0,12.4-12,19.1-22.8,20.6c-6.2,0.8-13.1,0.7-16.6-0.8C911.6,650,912,648.5,912.8,645.5z"/>
		</g>
	</g>
	<polygon id="XMLID_86_" class="st1" points="720.4,1089.5 720.4,790.2 986.6,719.1 986.6,1026.7 	"/>
</g>
</svg>
