<?xml version="1.0" encoding="utf-8"?>
<!-- Generator: Adobe Illustrator 19.0.0, SVG Export Plug-In . SVG Version: 6.00 Build 0)  -->
<svg version="1.1" id="Layer_1" xmlns="http://www.w3.org/2000/svg" xmlns:xlink="http://www.w3.org/1999/xlink" x="0px" y="0px"
	 viewBox="0 0 1200 1200" style="enable-background:new 0 0 1200 1200;" xml:space="preserve">
<style type="text/css">
	.st0{opacity:0.1;}
	.st1{fill:none;stroke:#000000;stroke-width:3;stroke-miterlimit:10;}
	.st2{fill:none;}
	.st3{stroke:#000000;stroke-miterlimit:10;}
	.st4{font-family:'StarJediHollow';}
	.st5{font-size:491.5954px;}
	.st6{font-family:'PerpetuaTitlingMT-Light';}
</style>
<g id="XMLID_1_" class="st0">
	<g id="XMLID_8_">
		<path id="XMLID_9_" class="st1" d="M469.8,688.9c-157.4-108.6,287.6-408,245.1-306.1c-31.5,75.7-5.9,306.1,186.2,306.1"/>
		<path id="XMLID_10_" class="st1" d="M901.1,688.9c0-40.9-95.2-118.5-57.5-118.5c37.7,0,222.7,79,180.2,158.1"/>
		<path id="XMLID_13_" class="st1" d="M579.5,679.1c0-39.5,45.8-84.1,40.4-108.6c-15.4-69.1,90.8,92.1,58.4,108.6"/>
		<path id="XMLID_14_" class="st1" d="M261.6,570.5c82.1-73.7-47.9-84.5-20.5-88.9C344.7,465.1,444.8,616.2,452,688.9"/>
		<path id="XMLID_15_" class="st1" d="M266.3,570.5c-20.5,17.1-76.5,34.4-76.5,108.6"/>
		<path id="XMLID_16_" class="st1" d="M189.8,688.9c0-67.9-64.7-72.7-46.7-122.9c8-22.5-118.6,83.5-68.3,162.5"/>
	</g>
	<rect id="XMLID_25_" x="62.9" y="785.3" class="st2" width="1119.7" height="628.1"/>
	<text id="XMLID_18_" transform="matrix(1 0 0 1 62.9453 1138.7994)"><tspan x="0" y="0" class="st3 st4 st5">T</tspan><tspan x="303.9" y="0" class="st3 st6 st5">O</tspan><tspan x="729.2" y="0" class="st3 st4 st5">P</tspan></text>
</g>
</svg>
