<?xml version="1.0" encoding="utf-8"?>
<!-- Generator: Adobe Illustrator 19.0.0, SVG Export Plug-In . SVG Version: 6.00 Build 0)  -->
<svg version="1.1" id="Layer_1" xmlns="http://www.w3.org/2000/svg" xmlns:xlink="http://www.w3.org/1999/xlink" x="0px" y="0px"
	 viewBox="0 0 1200 1200" style="enable-background:new 0 0 1200 1200;" xml:space="preserve">
<style type="text/css">
	.st0{opacity:0.1;}
	.st1{fill:#FFFFFF;stroke:#000000;stroke-width:3;stroke-miterlimit:10;}
	.st2{stroke:#FFFFFF;stroke-miterlimit:10;}
	.st3{fill:none;}
	.st4{fill:#FFFFFF;}
	.st5{font-family:'MyriadPro-Regular';}
	.st6{font-size:113.6225px;}
</style>
<g id="XMLID_30_" class="st0">
	<circle id="XMLID_73_" class="st1" cx="605.5" cy="348.6" r="102.9"/>
	<path id="XMLID_71_" class="st2" d="M636.9,881.5h-62.6c-65.4,0-118.5-53.1-118.5-118.5V570c0-65.4,53.1-118.5,118.5-118.5h62.6
		c65.4,0,118.5,53.1,118.5,118.5V763C755.4,828.5,702.3,881.5,636.9,881.5z"/>
	<path id="XMLID_40_" class="st2" d="M424.7,807.7L424.7,807.7c-21.5-5.2-34.7-26.7-29.5-48.2l60-249.6
		c5.2-21.5,26.7-34.7,48.2-29.5l0,0c21.5,5.2,34.7,26.7,29.5,48.2l-60,249.6C467.7,799.6,446.1,812.8,424.7,807.7z"/>
	<path id="XMLID_39_" class="st2" d="M804,785.1l-8.5,2.5c-19,5.6-38.9-5.2-44.6-24.2l-70-236c-5.6-19,5.2-38.9,24.2-44.6l8.5-2.5
		c19-5.6,38.9,5.2,44.6,24.2l70,236C833.8,759.5,823,779.5,804,785.1z"/>
	<polygon id="XMLID_38_" class="st2" points="772,881.5 352.5,881.5 337.5,713.4 858.6,713.4 	"/>
	<polygon id="XMLID_32_" class="st2" points="772,881.5 352.5,881.5 312.6,545.3 816.3,545.3 	"/>
	<path id="XMLID_31_" d="M605.5,224c6.1,16.1,1.6,105.7-41.1,127.7c-64,32.9-41.8,69.7-64,32.9c-8.9-14.8,16.7-170.8,85.1-160.6
		C633,231.1,599.4,207.9,605.5,224z"/>
	<path id="XMLID_80_" d="M708.4,325.9c-5-12.6-37.3,35.3-103.1-27.2c-55.9-53.1-65.2-34.5-38-46.8c12.3-5.6-21.3-27.2,38.2-28
		C696.6,222.7,726.6,371.9,708.4,325.9z"/>
	<rect id="XMLID_16_" x="467.8" y="666.5" class="st3" width="235.6" height="164.5"/>
	<text id="XMLID_81_" transform="matrix(1 0 0 1 467.7705 747.1697)" class="st4 st5 st6">&lt; / &gt;</text>
</g>
</svg>
