<?xml version="1.0" encoding="utf-8"?>
<!-- Generator: Adobe Illustrator 19.0.0, SVG Export Plug-In . SVG Version: 6.00 Build 0)  -->
<svg version="1.1" id="Layer_1" xmlns="http://www.w3.org/2000/svg" xmlns:xlink="http://www.w3.org/1999/xlink" x="0px" y="0px"
	 viewBox="0 0 1200 1200" style="enable-background:new 0 0 1200 1200;" xml:space="preserve">
<style type="text/css">
	.st0{opacity:0.1;}
	.st1{fill:#FFFFFF;}
	.st2{fill:none;stroke:#FFFFFF;stroke-width:2;stroke-miterlimit:10;}
	.st3{stroke:#000000;stroke-miterlimit:10;}
	.st4{fill:none;stroke:#FFFFFF;stroke-miterlimit:10;}
</style>
<g id="XMLID_1_" class="st0">
	<g id="XMLID_158_">
		
			<ellipse id="XMLID_197_" transform="matrix(-0.9013 -0.4333 0.4333 -0.9013 294.8763 1919.8359)" cx="366.2" cy="926.3" rx="5.4" ry="9.4"/>
		<g id="XMLID_159_">
			<path id="XMLID_196_" d="M459.1,696c4-65.1,3.7-78.8,6.3-47.2c0.5,6,0-21.2,11,46.7c4.1,25.5-0.9,42.9-11,46.7
				C459.2,744.4,456.4,738.7,459.1,696z"/>
			<g id="XMLID_160_">
				<path id="XMLID_195_" d="M426.4,827.5c-30.5-59.5-6.9-19.3,31.7-22.1c16.9-1.3,35.7,8.7,35.7,25c0,16.3-14.8,29.5-33.1,29.5
					C442.4,859.9,433.9,842,426.4,827.5z"/>
				<path id="XMLID_194_" d="M593.6,865.1c-3.7,5.2-36.8,0-71.4,0s-72.1-3.9-62.6-11.4c20.7-16.3,18.3-23.7,63-15
					C558.9,845.8,606.5,846.9,593.6,865.1z"/>
				<path id="XMLID_193_" d="M626.2,832.1c17.6-36.5,40.6-81.1,15-49.4c-12.9,15.9,35.1-38.2-33,38.6
					c-16.9,19.1-27.2,53.3-15.5,44.8C598.2,862,609.7,866.1,626.2,832.1z"/>
				<path id="XMLID_192_" d="M653.5,769.7c5.1-29.9,4.4-36.9-4.1-14.5c-2.8,7.5-0.7,9.2-4.6,14.2c-4.4,5.6-8.4,12.1,1,13.1
					C650.1,783,652.4,776.7,653.5,769.7z"/>
				<path id="XMLID_191_" d="M425.5,890.6c42.2-36.7,46.5-44.8,42.1-50.3c-7.7-9.7-35.1,5-60.9,28.1c-26.6,23.8-44.1,55.6-38.2,59.8
					C373.7,932,367.1,941.4,425.5,890.6z"/>
				<path id="XMLID_190_" d="M340.2,955.4c13.1-20.7,49-54.1,35.2-32.5c-2.4,3.8-1.2,25.9-17.9,44c-16.7,18.1-70.2,54.5-42.5,21.7
					C319.5,983.3,327,976.2,340.2,955.4z"/>
				<path id="XMLID_189_" d="M305.6,1015.3c5.6-10.3,16-2.3,7.1-20.4c-0.9-1.8-10.1,7.6-15.7,17.9s-12.6,26.5-4.6,19.5
					C293.7,1030.9,300,1025.6,305.6,1015.3z"/>
				<path id="XMLID_188_" d="M412.5,766.5c13.9-32.4-21.1-44.8,22.8-57.1c22-6.2,66.8,14.3,33.7,62.5c-17.9,26-21.1,51.7-33.7,51.7
					S400.9,793.3,412.5,766.5z"/>
				<path id="XMLID_187_" d="M458.6,630.5c0-20.1,2.4-36.3,5.4-36.3s0.4,16.5,5.4,36.3c4.9,19.4,5.5,36.3-5.4,36.3
					C455.5,666.8,458.6,650.5,458.6,630.5z"/>
				<path id="XMLID_186_" d="M461.3,597.4c1.1-5.3,5.2-5.1,17.3-3.8c21.9,2.4,28.3,6.4,20,4.4c-5.2-1.2,1.6-0.1-24.6,3.5
					C464.6,602.8,460.9,599.6,461.3,597.4z"/>
				<path id="XMLID_185_" d="M440.1,696.2c-12-50.7,0-32.9,6.8-34s-14.2-17.4,10,28.7c8.4,16,2.7,29.2,0.9,35.3
					C450.6,749.8,444.6,714.8,440.1,696.2z"/>
				<path id="XMLID_184_" d="M434.1,635.3c2.6-21.7,2.7-38.4,6.9-38.4c4.2,0,5.6,20.6,5.6,38.4s6.6,28.9-4.9,32.1
					C435.6,669.1,430.1,669,434.1,635.3z"/>
				<path id="XMLID_183_" d="M464.1,601.6c0-2.1-5.8-3.8-13.1-3.8s-13.1-2.7-13.1,3.8c0,2.1,5.8,3.8,13.1,3.8
					S464.1,603.7,464.1,601.6z"/>
				<path id="XMLID_182_" d="M527.2,720c3.2-21.9-17.7-29.2-32.2-18.9c-17.1,12.1-32.2,8.5-32.2,18.9c0,10.4,16-0.3,32.2,18.9
					C506.4,752.6,525.7,730.4,527.2,720z"/>
				<ellipse id="XMLID_181_" cx="516.8" cy="736" rx="11" ry="10.6"/>
				<path id="XMLID_180_" d="M488.2,715.9c-9.3-19.9-10-15.1-9.3-19.9c0.9-6.2,13.5,1.8,21,6.2c7.7,4.5,5.3,22.2,2.8,24.1
					C500.2,728.1,492.1,724.3,488.2,715.9z"/>
				<path id="XMLID_162_" d="M496.7,704.7c-2.3-5.7-11.8-22.3-0.3-12c1.7,1.6,7.6-0.3,9.9,5.4c2.3,5.7,0.6,14.5-1.5,15.4
					C502.6,714.4,499,710.5,496.7,704.7z"/>
				<ellipse id="XMLID_161_" cx="490.8" cy="698.2" rx="5.7" ry="4.8"/>
			</g>
		</g>
	</g>
	
		<rect id="XMLID_157_" x="407" y="272.6" transform="matrix(0.9406 -0.3396 0.3396 0.9406 -80.6673 158.7198)" class="st1" width="12.4" height="74.5"/>
	
		<ellipse id="XMLID_156_" transform="matrix(0.9406 -0.3396 0.3396 0.9406 -64.1014 185.8875)" cx="499.1" cy="276.1" rx="258.6" ry="114.9"/>
	
		<rect id="XMLID_155_" x="406" y="279.5" transform="matrix(0.9051 -0.4252 0.4252 0.9051 -70.7252 254.5399)" class="st1" width="257.8" height="12.4"/>
	
		<rect id="XMLID_154_" x="442" y="273.4" transform="matrix(0.9406 -0.3396 0.3396 0.9406 -78.8493 170.6694)" class="st1" width="12.4" height="74.5"/>
	
		<rect id="XMLID_153_" x="471.3" y="262.8" transform="matrix(0.9406 -0.3396 0.3396 0.9406 -73.5318 179.9636)" class="st1" width="12.4" height="74.5"/>
	
		<rect id="XMLID_151_" x="500.5" y="238.8" transform="matrix(0.9406 -0.3396 0.3396 0.9406 -63.6511 188.4612)" class="st1" width="12.4" height="74.5"/>
	
		<rect id="XMLID_150_" x="529.7" y="228.3" transform="matrix(0.9406 -0.3396 0.3396 0.9406 -58.3335 197.7553)" class="st1" width="12.4" height="74.5"/>
	
		<rect id="XMLID_149_" x="556" y="218.8" transform="matrix(0.9406 -0.3396 0.3396 0.9406 -53.5478 206.1201)" class="st1" width="12.4" height="74.5"/>
	
		<rect id="XMLID_148_" x="585.2" y="208.2" transform="matrix(0.9406 -0.3396 0.3396 0.9406 -48.2302 215.4143)" class="st1" width="12.4" height="74.5"/>
	<circle id="XMLID_146_" cx="870.9" cy="536.1" r="233"/>
	<path id="XMLID_145_" class="st2" d="M642.2,610.6c0-82.3,107.8-149,240.9-149s240.9,66.7,240.9,149"/>
	<path id="XMLID_144_" class="st2" d="M753.3,310.1c82.3,0,149,107.8,149,240.9s-66.7,240.9-149,240.9"/>
	<path id="XMLID_143_" class="st2" d="M1117.6,732.2c-24.4,0-71-39.8-117.5-148.1c-41.3-96.2,19.7-214.4,44.1-214.4"/>
	<path id="XMLID_142_" class="st2" d="M637.9,340.6c57.7-10.2,198.9,95.9,130.8,195.8c-97.1,142.5-97.1,142.5-130.8,195.8"/>
	<circle id="XMLID_128_" class="st3" cx="236.1" cy="635.7" r="104"/>
	<path id="XMLID_127_" class="st4" d="M340.1,711.7c-29.1,0-52.6-32-52.6-71.5c0-39.5,23.6-71.5,52.6-71.5"/>
	<path id="XMLID_126_" class="st4" d="M147.2,564.2c29.1,0,52.6,32,52.6,71.5c0,39.5-23.6,71.5-52.6,71.5"/>
	<circle id="XMLID_103_" class="st3" cx="795.7" cy="958.8" r="116.4"/>
	<path id="XMLID_102_" class="st4" d="M895.9,856c0,52.4-46.3,94.9-103.3,94.9S689.3,908.4,689.3,856"/>
	<path id="XMLID_101_" class="st4" d="M911.1,898.6c0,52.4-55.2,94.9-123.3,94.9s-123.3-42.5-123.3-94.9"/>
	<path id="XMLID_97_" class="st4" d="M909.2,941.3c0,52.4-55.2,94.9-123.3,94.9s-123.3-42.5-123.3-94.9"/>
</g>
</svg>
