<?xml version="1.0" encoding="utf-8"?>
<!-- Generator: Adobe Illustrator 19.0.0, SVG Export Plug-In . SVG Version: 6.00 Build 0)  -->
<svg version="1.1" id="Layer_1" xmlns="http://www.w3.org/2000/svg" xmlns:xlink="http://www.w3.org/1999/xlink" x="0px" y="0px"
	 viewBox="0 0 1200 1200" style="enable-background:new 0 0 1200 1200;" xml:space="preserve">
<style type="text/css">
	.st0{opacity:0.1;}
	.st1{fill:#FFFFFF;stroke:#000000;stroke-width:12;stroke-miterlimit:10;}
	.st2{stroke:#FFFFFF;stroke-miterlimit:10;}
	.st3{fill:none;stroke:#000000;stroke-width:3;stroke-miterlimit:10;}
	.st4{fill:#FFFFFF;}
</style>
<g id="XMLID_1_" class="st0">
	<path id="XMLID_83_" class="st1" d="M797.5,981.2H336.8c-37,0-67-30-67-67V614.8c0-28.9,23.4-52.3,52.3-52.3h469
		c31.2,0,56.5,25.3,56.5,56.5v312C847.7,958.7,825.2,981.2,797.5,981.2z"/>
	<rect id="XMLID_84_" x="504.3" y="981.2" width="121.4" height="113.1"/>
	<polygon id="XMLID_85_" points="847.7,1186.4 311.7,1186.4 391.5,1094.2 759.8,1094.2 	"/>
	<rect id="XMLID_86_" x="668.6" y="824.4" class="st2" width="122.5" height="198.6"/>
	<g id="XMLID_108_">
		<path id="XMLID_109_" class="st3" d="M355.4,774.6c18.8-18.8,63.3-4.6,99.4,31.5c36.2,36.2,50.3,80.7,31.5,99.4"/>
		<path id="XMLID_110_" class="st3" d="M364.7,825.7c13.8-13.8,43.4-6.7,66,15.9s29.7,52.2,15.9,66"/>
		<path id="XMLID_111_" class="st3" d="M360,869.9c8.6-8.6,27-4.2,41.1,9.9c14.1,14.1,18.5,32.5,9.9,41.1"/>
	</g>
	<rect id="XMLID_2_" x="680.3" y="843.6" class="st4" width="100.4" height="157.7"/>
</g>
</svg>
